# xmcd
#
# Track frame offsets:
#	150
#	37130
#	54382
#	88763
#	105500
#	153479
#	170445
#	201671
#	218791
#	265823
#
# Disc length: 3785 seconds
#
# Revision: 1
# Processed by: cddbd v1.5.2PL0 Copyright (c) Steve Scherf et al.
# Submitted via: audiograbber 1.83.01
#
DISCID=8e0ec70a
DTITLE=Johnny Preston - Plus DBD Dance
DYEAR=1900
DGENRE=Square Dance
TTITLE0=Patter 1
TTITLE1=Steel Rails (Royal)
TTITLE2=Patter 2
TTITLE3=One More Town (Chinook)
TTITLE4=Patter 3
TTITLE5=Shake Shake Shake (Elite)
TTITLE6=Patter 4
TTITLE7=I Ain't Never Seen (Diamond)
TTITLE8=Patter 5
TTITLE9=Rhythm Of My Heart (Rhythm)
EXTD=
EXTT0=
EXTT1=
EXTT2=
EXTT3=
EXTT4=
EXTT5=
EXTT6=
EXTT7=
EXTT8=
EXTT9=
PLAYORDER=
